<?xml version="1.0" ?><svg style="enable-background:new 0 0 512 512;" version="1.1" viewBox="0 0 512 512" xml:space="preserve" xmlns="http://www.w3.org/2000/svg" xmlns:xlink="http://www.w3.org/1999/xlink"><style type="text/css">
	.st0{fill:#3399CC;}
	.st1{fill:#FFFFFF;}
</style><g id="Edges"/><g id="Background_1_"><path class="st0" d="M493.3,268.3C487,391.1,383.4,492.7,256.8,492.8C130,492.9,26.1,391.3,19.8,268.3   C13.1,136.2,120.9,19.2,256.6,19.2C392.3,19.2,500.1,136.3,493.3,268.3z"/></g><g id="Symbol"><path class="st1" d="M343.4,113H169.8c-30.2,0-54.7,24.5-54.7,54.7v57.7v115.8c0,30.1,24.5,54.7,54.7,54.7h173.6   c30.1,0,54.7-24.5,54.7-54.7V225.4v-57.8C398,137.5,373.5,113,343.4,113z M359.1,145.6l6.3,0v6.2v41.7l-47.8,0.2l-0.2-48   L359.1,145.6z M216.2,225.4c9.1-12.5,23.8-20.8,40.4-20.8s31.3,8.2,40.4,20.8c5.9,8.2,9.4,18.2,9.4,29c0,27.5-22.4,49.8-49.8,49.8   c-27.5,0-49.8-22.3-49.8-49.8C206.8,243.6,210.3,233.6,216.2,225.4z M370.5,341.2c0,15-12.2,27.1-27.1,27.1H169.8   c-15,0-27.1-12.1-27.1-27.1V225.4h42.2c-3.6,9-5.7,18.8-5.7,29c0,42.6,34.7,77.4,77.4,77.4c42.7,0,77.4-34.7,77.4-77.4   c0-10.3-2.1-20.1-5.7-29h42.2L370.5,341.2L370.5,341.2z"/></g></svg>