<svg xmlns="http://www.w3.org/2000/svg" height="250" width="1250"><defs><clipPath id="a"><path d="M0 200h1000V0H0v200z"/></clipPath></defs><g clip-path="url(#a)" transform="matrix(1.25 0 0 -1.25 0 250)"><path d="M52.122 112.032c0-3.1-.322-6.009-.963-8.73-.643-2.72-1.701-5.102-3.175-7.143-1.474-2.04-3.421-3.648-5.84-4.818-2.42-1.17-5.367-1.757-8.842-1.757-2.42 0-4.65.283-6.69.85s-3.817 1.398-5.328 2.494c-1.513 1.095-2.704 2.398-3.572 3.912-.87 1.51-1.303 3.211-1.303 5.101 0 2.268.64 4.1 1.927 5.5 1.284 1.397 3.175 2.096 5.669 2.096 1.134 0 2.078-.189 2.834-.566.755-.379 1.34-.814 1.758-1.304.414-.492.717-1.04.906-1.644.188-.606.284-1.134.284-1.587 0-.833-.113-1.55-.34-2.154l-.68-1.814a57.21 57.21 0 0 1-.681-1.927c-.227-.682-.34-1.55-.34-2.609 0-1.739.51-2.967 1.53-3.684 1.02-.719 2.399-1.077 4.139-1.077 2.19 0 3.968.811 5.329 2.437 1.36 1.624 2.04 4.48 2.04 8.56v68.253H28.2v1.587h36.507v-1.587H52.122v-58.389zm17.573 59.976h36.507v-1.587H93.617v-54.76c0-4.536.397-8.373 1.19-11.509.795-3.137 1.985-5.669 3.573-7.596a13.226 13.226 0 0 1 5.895-4.138c2.342-.832 5.026-1.247 8.05-1.247 4.232 0 7.974.624 11.224 1.87 3.249 1.248 6.046 3.46 8.39 6.633a26.717 26.717 0 0 1 1.984 2.948c.567.981 1.058 2.134 1.474 3.458.414 1.321.737 2.908.964 4.761.227 1.852.34 4.14.34 6.86v52.72h-12.585v1.587h26.87v-1.587h-12.584v-54.988c0-3.175-.341-6.066-1.021-8.673-.68-2.608-2.08-5.31-4.195-8.106-2.041-2.722-4.875-4.915-8.503-6.576-3.628-1.662-8.43-2.494-14.4-2.494-9.07 0-16.005 2.228-20.804 6.69-4.801 4.457-7.2 11.297-7.2 20.52v53.627H69.696v1.587zm87.072-79.137h12.585v77.55h-12.585v1.587h36.507v-1.587h-12.585v-77.55h20.182c6.65 0 11.865 2.078 15.646 6.236 3.778 4.156 6.536 9.825 8.276 17.007h1.247v-24.83h-69.273v1.587zm78.003 0h12.584v77.55H234.77v1.587h36.507v-1.587h-12.584v-77.55h12.584v-1.587H234.77v1.587zm76.98 66.099l-12.47-32.993h24.943L311.75 158.97zm-36.847-66.099h9.977l30.612 81.178h2.721l30.838-81.178h10.092v-1.587h-34.92v1.587h12.585l-11.905 31.52H298.6l-11.905-31.52h12.585v-1.587h-24.376v1.587zm142.968 0c.907-.076 1.908-.17 3.004-.283 1.095-.113 2.665-.17 4.705-.17 3.553 0 6.594.34 9.127 1.02 2.532.681 4.61 1.871 6.236 3.572 1.625 1.701 2.815 3.948 3.572 6.746.754 2.795 1.133 6.31 1.133 10.544 0 6.046-1.286 10.807-3.855 14.285-2.57 3.476-6.387 5.215-11.45 5.215h-12.472V92.871zm0 42.517h10.431c2.115 0 4.042.264 5.782.793a10.082 10.082 0 0 1 4.478 2.778c1.247 1.322 2.211 3.118 2.892 5.386.68 2.267 1.02 5.14 1.02 8.616 0 3.93-.51 7.086-1.53 9.467-1.02 2.381-2.344 4.175-3.969 5.385a13.092 13.092 0 0 1-5.442 2.381 32.058 32.058 0 0 1-5.953.567c-1.36 0-2.74-.019-4.138-.057-1.399-.039-2.59-.132-3.57-.283v-35.033zM393.95 92.871h12.585v77.55H393.95v1.587h19.84a114.89 114.89 0 0 1 7.03.227c1.208 0 2.381.018 3.514.057 1.134.037 2.23.057 3.288.057 5.517 0 10.052-.663 13.605-1.985 3.553-1.323 6.35-2.948 8.391-4.875 2.04-1.927 3.438-4.007 4.194-6.236.755-2.23 1.134-4.25 1.134-6.065 0-2.495-.549-4.8-1.644-6.916a18.45 18.45 0 0 0-4.42-5.556c-1.854-1.587-3.989-2.873-6.407-3.854a28.68 28.68 0 0 0-7.597-1.928v-.227c2.722-.226 5.5-.813 8.334-1.757 2.834-.946 5.403-2.267 7.71-3.968a20.37 20.37 0 0 0 5.612-6.293c1.435-2.494 2.154-5.367 2.154-8.616 0-3.402-.643-6.519-1.928-9.354-1.286-2.834-3.213-5.272-5.782-7.313-2.57-2.04-5.82-3.647-9.75-4.818-3.93-1.173-8.503-1.758-13.719-1.758-1.059 0-2.097.02-3.118.057-1.02.04-2.097.095-3.23.171a97.093 97.093 0 0 1-3.516.17c-1.21.04-2.494.056-3.855.056h-19.84v1.587zm75.62 0h12.585v77.55H469.57v1.587h64.852v-19.614h-1.248c-.983 2.948-2.04 5.536-3.174 7.767-1.134 2.228-2.494 4.118-4.08 5.668-1.589 1.55-3.479 2.702-5.67 3.46-2.194.753-4.838 1.132-7.937 1.132h-18.82v-35.033h7.37c2.493 0 4.608.226 6.348.68a9.664 9.664 0 0 1 4.478 2.551c1.247 1.247 2.305 2.948 3.175 5.102.868 2.154 1.72 4.932 2.551 8.333h1.247v-35.26h-1.247a195.25 195.25 0 0 1-1.644 6.35c-.567 2.04-1.36 3.854-2.38 5.441-1.02 1.587-2.382 2.852-4.083 3.798-1.7.945-3.91 1.417-6.633 1.417h-9.183V92.871h21.43c4.155 0 7.613.888 10.373 2.664 2.757 1.775 5.005 3.893 6.746 6.35 1.737 2.455 3.022 5.006 3.854 7.653.831 2.645 1.361 4.836 1.588 6.576h1.247v-24.83h-69.16v1.587zm79.817 0h12.585v77.55h-12.585v1.587h36.507v-1.587H573.31v-77.55h20.18c6.65 0 11.866 2.078 15.646 6.236 3.779 4.156 6.537 9.825 8.277 17.007h1.247v-24.83h-69.273v1.587zm78.003 0h12.585v77.55H627.39v1.587h36.508v-1.587h-12.585v-77.55h12.585v-1.587H627.39v1.587zm76.981 66.099L691.9 125.977h24.943l-12.47 32.993zm-36.848-66.099h9.978l30.611 81.178h2.721l30.84-81.178h10.09v-1.587h-34.92v1.587h12.584l-11.905 31.52H691.22l-11.905-31.52H691.9v-1.587h-24.376v1.587zm87.527 0h12.585v77.55H755.05v1.587h64.852v-19.614h-1.248c-.983 2.948-2.041 5.536-3.174 7.767-1.134 2.228-2.494 4.118-4.081 5.668-1.588 1.55-3.478 2.702-5.67 3.46-2.193.753-4.837 1.132-7.936 1.132h-18.82v-35.033h7.369c2.494 0 4.609.226 6.349.68a9.664 9.664 0 0 1 4.478 2.551c1.247 1.247 2.305 2.948 3.175 5.102.868 2.154 1.719 4.932 2.55 8.333h1.248v-35.26h-1.247a195.25 195.25 0 0 1-1.644 6.35c-.567 2.04-1.36 3.854-2.381 5.441-1.02 1.587-2.381 2.852-4.082 3.798-1.7.945-3.911 1.417-6.633 1.417h-9.182V92.871H800.4c4.156 0 7.614.888 10.374 2.664 2.757 1.775 5.005 3.893 6.746 6.35 1.737 2.455 3.022 5.006 3.854 7.653.83 2.645 1.36 4.836 1.588 6.576h1.247v-24.83h-69.16v1.587zm75.055 79.137h35.033v-1.587h-12.585l25.17-65.759 24.829 65.76h-12.358v1.586h24.49v-1.587H904.48l-30.498-80.837h-2.835l-30.839 80.837h-10.204v1.587zm107.367-13.038L925 125.977h24.943l-12.471 32.993zm-36.848-66.099h9.978l30.61 81.178h2.722l30.839-81.178h10.09v-1.587h-34.92v1.587h12.585l-11.905 31.52H924.32l-11.905-31.52H925v-1.587h-24.376v1.587zM293.68 36.433h3.67v22.619h-3.67v.463h10.648v-.463h-3.67v-22.62h5.885c1.94 0 3.461.607 4.564 1.819 1.102 1.213 1.906 2.867 2.414 4.96h.364V35.97H293.68v.463zm22.751 0h3.67v22.619h-3.67v.463h10.648v-.463h-3.67v-22.62h3.67v-.462h-10.648v.463zm12.731 0h3.67v22.619h-3.67v.463h18.915v-5.721h-.364c-.287.86-.595 1.615-.926 2.265a6.242 6.242 0 0 1-1.19 1.653 4.385 4.385 0 0 1-1.654 1.009c-.64.22-1.411.33-2.314.33h-5.49V48.338h2.149c.728 0 1.345.067 1.853.2a2.81 2.81 0 0 1 1.306.743c.363.364.672.86.925 1.488.254.629.502 1.438.745 2.43h.363V42.915h-.363a56.25 56.25 0 0 1-.48 1.852 5.774 5.774 0 0 1-.694 1.588 3.294 3.294 0 0 1-1.191 1.107c-.496.276-1.141.413-1.934.413h-2.68V36.433h3.672v-.463h-10.648v.463zm22.056 0h3.67v22.619h-3.67v.463h18.915v-5.721h-.364c-.287.86-.595 1.615-.926 2.265a6.242 6.242 0 0 1-1.19 1.653A4.385 4.385 0 0 1 366 58.72c-.639.22-1.41.33-2.314.33h-5.49V48.834h2.15c.727 0 1.344.067 1.852.199.506.132.942.38 1.306.744.363.364.672.86.925 1.488.254.628.502 1.439.745 2.43h.363V43.412h-.363a56.837 56.837 0 0 1-.48 1.85A5.787 5.787 0 0 1 364 46.85a3.294 3.294 0 0 1-1.19 1.107c-.497.276-1.142.414-1.935.414h-2.679V36.433h6.25c1.212 0 2.221.259 3.026.777a7.03 7.03 0 0 1 1.967 1.852c.508.716.882 1.46 1.125 2.232.242.772.397 1.41.463 1.918h.363V35.97h-20.17v.463zm53.67-.43l-.496-.033a3.193 3.193 0 0 1-.53.479c-.198.144-.507.215-.925.215-.331 0-.69-.06-1.075-.182-.386-.121-.827-.26-1.323-.413a16.372 16.372 0 0 0-1.67-.414 10.769 10.769 0 0 0-2.05-.181c-1.39 0-2.74.254-4.051.76-1.312.507-2.551 1.333-3.72 2.48-1.08 1.08-1.984 2.359-2.711 3.837-.728 1.476-1.092 3.184-1.092 5.125 0 1.653.298 3.229.893 4.728a12.702 12.702 0 0 0 2.48 3.969 11.955 11.955 0 0 0 3.737 2.728c1.433.673 2.998 1.008 4.696 1.008.683 0 1.289-.062 1.818-.187a11.083 11.083 0 0 0 1.422-.43c.419-.162.805-.308 1.158-.44a2.892 2.892 0 0 1 1.025-.2c.44 0 .755.072.942.216.187.143.358.303.513.48l.496-.033V52.9h-.364a20.128 20.128 0 0 1-.76 2.48 7.046 7.046 0 0 1-1.29 2.167c-.551.628-1.251 1.135-2.1 1.52-.85.386-1.901.58-3.158.58-1.17 0-2.172-.182-3.01-.546a6.375 6.375 0 0 1-2.116-1.455 7.071 7.071 0 0 1-1.372-2.117 12.818 12.818 0 0 1-.777-2.546 19.955 19.955 0 0 1-.347-2.711 42.582 42.582 0 0 1-.083-2.596c0-2.315.187-4.233.562-5.754.375-1.522.898-2.723 1.57-3.605.673-.881 1.483-1.5 2.432-1.851.947-.353 1.994-.53 3.14-.53 1.478 0 2.668.215 3.573.645.903.43 1.63.982 2.182 1.654.55.672.97 1.433 1.256 2.282.287.848.54 1.69.76 2.529h.365v-7.043zm8.134 6.58c.265-1.477.706-2.711 1.323-3.703.616-.992 1.41-1.732 2.38-2.216.97-.485 2.171-.727 3.604-.727 1.411 0 2.607.242 3.588.727.981.484 1.78 1.224 2.397 2.216.618.992 1.06 2.226 1.323 3.703.265 1.478.397 3.208.397 5.192 0 1.521-.099 2.993-.298 4.414-.198 1.422-.578 2.69-1.14 3.803-.563 1.113-1.346 2.001-2.348 2.662-1.004.661-2.31.992-3.919.992s-2.915-.331-3.918-.992c-1.004-.661-1.786-1.549-2.348-2.662-.563-1.113-.943-2.381-1.14-3.803a31.967 31.967 0 0 1-.299-4.414c0-1.984.132-3.714.397-5.192m-3.158 10.086c.695 1.499 1.587 2.8 2.68 3.902a12.492 12.492 0 0 0 3.686 2.596c1.366.628 2.733.942 4.1.942a10.15 10.15 0 0 0 4.25-.942 12.251 12.251 0 0 0 3.687-2.596c1.08-1.102 1.945-2.403 2.595-3.902.65-1.499.976-3.131.976-4.894a12.02 12.02 0 0 0-.893-4.53 13.132 13.132 0 0 0-2.447-3.935 12.395 12.395 0 0 0-3.654-2.778 9.885 9.885 0 0 0-4.514-1.058c-1.653 0-3.186.341-4.597 1.025a11.789 11.789 0 0 0-3.653 2.728 12.53 12.53 0 0 0-2.398 3.935 12.707 12.707 0 0 0-.86 4.613c0 1.763.347 3.395 1.042 4.894m33.945 3.043l-3.637-9.623h7.275l-3.638 9.623zm-10.747-19.28h2.91l8.928 23.677h.794l8.995-23.676h2.943v-.463h-10.185v.463h3.67l-3.472 9.193h-7.671l-3.473-9.193h3.67v-.463h-7.11v.463zm45.733-.429l-.496-.033a3.193 3.193 0 0 1-.53.479c-.198.144-.507.215-.925.215-.331 0-.69-.06-1.075-.182-.386-.121-.827-.26-1.323-.413a16.372 16.372 0 0 0-1.67-.414 10.769 10.769 0 0 0-2.05-.181c-1.39 0-2.74.254-4.051.76-1.312.507-2.551 1.333-3.72 2.48-1.08 1.08-1.984 2.359-2.711 3.837-.728 1.476-1.092 3.184-1.092 5.125 0 1.653.298 3.229.893 4.728a12.702 12.702 0 0 0 2.48 3.969 11.955 11.955 0 0 0 3.737 2.728c1.433.673 2.998 1.008 4.696 1.008.683 0 1.289-.062 1.818-.187a11.083 11.083 0 0 0 1.422-.43c.419-.162.805-.308 1.158-.44a2.892 2.892 0 0 1 1.025-.2c.44 0 .755.072.942.216.187.143.358.303.513.48l.496-.033V52.9h-.364a20.128 20.128 0 0 1-.76 2.48 7.046 7.046 0 0 1-1.29 2.167c-.551.628-1.251 1.135-2.1 1.52-.85.386-1.901.58-3.158.58-1.17 0-2.172-.182-3.01-.546a6.375 6.375 0 0 1-2.116-1.455 7.071 7.071 0 0 1-1.372-2.117 12.818 12.818 0 0 1-.777-2.546 19.955 19.955 0 0 1-.347-2.711 42.582 42.582 0 0 1-.083-2.596c0-2.315.187-4.233.562-5.754.375-1.522.898-2.723 1.57-3.605.673-.881 1.483-1.5 2.432-1.851.947-.353 1.994-.53 3.14-.53 1.478 0 2.668.215 3.573.645.903.43 1.63.982 2.182 1.654.55.672.97 1.433 1.256 2.282.287.848.54 1.69.76 2.529h.365v-7.043zm2.678.43h3.67v22.619h-3.67v.463h10.648v-.463h-3.67V48.239h11.011v10.813h-3.67v.463h10.647v-.463h-3.67v-22.62h3.67v-.462H495.79v.463h3.671v11.343H488.45V36.433h3.671v-.463h-10.648v.463zm36.143 0h3.671v22.619h-3.67v.463h18.914v-5.721h-.364c-.286.86-.595 1.615-.926 2.265a6.242 6.242 0 0 1-1.19 1.653 4.378 4.378 0 0 1-1.654 1.009c-.639.22-1.41.33-2.314.33h-5.489V48.338h2.15c.726 0 1.343.067 1.851.2a2.81 2.81 0 0 1 1.306.743c.363.364.672.86.926 1.488.253.629.501 1.438.744 2.43h.363V42.915h-.363a58.919 58.919 0 0 1-.479 1.852 5.777 5.777 0 0 1-.696 1.588 3.283 3.283 0 0 1-1.19 1.107c-.495.276-1.14.413-1.934.413h-2.678V36.433h3.67v-.463h-10.648v.463zm27.513 6.15c.265-1.477.705-2.711 1.323-3.703.616-.992 1.41-1.732 2.38-2.216.97-.485 2.172-.727 3.606-.727 1.41 0 2.606.242 3.587.727.98.484 1.78 1.224 2.398 2.216.616.992 1.058 2.226 1.322 3.703.265 1.478.397 3.208.397 5.192a31.97 31.97 0 0 1-.297 4.414c-.2 1.422-.58 2.69-1.142 3.803a6.784 6.784 0 0 1-2.347 2.662c-1.003.661-2.31.992-3.918.992-1.611 0-2.916-.331-3.92-.992-1.003-.661-1.785-1.549-2.347-2.662-.563-1.113-.942-2.381-1.142-3.803a31.972 31.972 0 0 1-.296-4.414c0-1.984.13-3.714.396-5.192m-3.158 10.086c.694 1.499 1.588 2.8 2.679 3.902a12.505 12.505 0 0 0 3.687 2.596c1.366.628 2.733.942 4.1.942 1.455 0 2.872-.314 4.25-.942a12.235 12.235 0 0 0 3.686-2.596c1.08-1.102 1.945-2.403 2.597-3.902.649-1.499.974-3.131.974-4.894a12 12 0 0 0-.892-4.53 13.132 13.132 0 0 0-2.447-3.935 12.395 12.395 0 0 0-3.654-2.778 9.884 9.884 0 0 0-4.513-1.058c-1.655 0-3.187.341-4.597 1.025a11.781 11.781 0 0 0-3.654 2.728 12.512 12.512 0 0 0-2.398 3.935 12.728 12.728 0 0 0-.86 4.613c0 1.763.347 3.395 1.042 4.894m32.191-3.836h3.042c.617 0 1.18.077 1.687.231.506.155.942.425 1.305.811.364.386.646.909.844 1.57.198.662.298 1.499.298 2.514 0 1.145-.15 2.066-.447 2.761-.297.694-.683 1.217-1.158 1.571a3.794 3.794 0 0 1-1.587.694 9.28 9.28 0 0 1-1.736.165c-.396 0-.799-.005-1.207-.016a8.502 8.502 0 0 1-1.04-.082V48.833zm-6.978-12.4h3.671v22.619h-3.67v.463h6.283a19.105 19.105 0 0 1 1.587.065c.264 0 .53.006.794.017.264.01.528.016.792.016 1.301 0 2.448-.071 3.44-.215.992-.143 1.918-.556 2.777-1.24.772-.595 1.318-1.267 1.638-2.016.32-.75.48-1.455.48-2.117 0-.331-.062-.755-.183-1.273-.12-.519-.386-1.048-.793-1.587-.408-.541-.998-1.037-1.77-1.488-.77-.452-1.797-.756-3.075-.909v-.067c.353-.045.832-.127 1.44-.248a8.446 8.446 0 0 0 1.85-.612 6.864 6.864 0 0 0 1.737-1.141c.53-.474.903-1.086 1.124-1.835.132-.441.225-.942.281-1.505.054-.562.1-1.14.132-1.736.033-.595.066-1.168.1-1.719a8.398 8.398 0 0 1 .181-1.389 5.113 5.113 0 0 1 .63-1.554c.285-.463.748-.694 1.387-.694.287 0 .584.054.893.165.31.11.584.286.827.529l.297-.364a6.531 6.531 0 0 0-.38-.281 2.756 2.756 0 0 0-.546-.281 4.06 4.06 0 0 0-.809-.215 7.184 7.184 0 0 0-1.174-.083c-.883 0-1.615.111-2.199.331-.585.22-1.054.545-1.406.976-.353.43-.612.959-.777 1.587a12.718 12.718 0 0 0-.348 2.199l-.23 3.009c-.089 1.102-.31 1.962-.662 2.579-.353.617-.767 1.069-1.24 1.356a3.578 3.578 0 0 1-1.472.513c-.507.055-.948.082-1.322.082h-3.307V36.433h3.67v-.463h-10.648v.463zm57.671 7.969h-2.646v-7.507h-.396c-.243.242-.441.408-.596.496-.154.088-.396.133-.727.133-.397 0-.8-.105-1.207-.314-.408-.21-.882-.447-1.422-.71a11.603 11.603 0 0 0-1.902-.712c-.727-.21-1.61-.315-2.645-.315-1.565 0-2.954.26-4.166.778-1.213.517-2.381 1.34-3.506 2.464-1.102 1.101-2.016 2.402-2.744 3.901-.728 1.5-1.092 3.185-1.092 5.06 0 1.256.144 2.385.43 3.39.287 1.002.634 1.878 1.042 2.628.408.75.827 1.378 1.257 1.885.429.507.788.903 1.074 1.19a12.414 12.414 0 0 0 3.406 2.414c1.278.617 2.734.926 4.365.926.838 0 1.527-.062 2.067-.187a9.426 9.426 0 0 0 1.406-.43l1.074-.44c.32-.133.677-.2 1.074-.2.441 0 .755.061.943.183.186.12.368.292.545.513l.496-.034V52.9h-.363c-.089.573-.26 1.245-.513 2.018a7.507 7.507 0 0 1-1.19 2.215c-.542.706-1.257 1.3-2.15 1.786-.893.484-2.034.727-3.423.727-1.653 0-2.98-.347-3.984-1.042-1.004-.694-1.786-1.609-2.348-2.744-.562-1.136-.937-2.42-1.125-3.853a33.431 33.431 0 0 1-.148-7.307c.088-.992.236-1.93.446-2.812.21-.882.501-1.697.876-2.447a6.308 6.308 0 0 1 1.455-1.917c.662-.596 1.345-1.009 2.051-1.24.705-.232 1.62-.348 2.744-.348.684 0 1.367.116 2.051.348a5.508 5.508 0 0 1 1.835 1.041c.54.463.98 1.053 1.324 1.77.34.715.512 1.56.512 2.53v2.777h-4.266v.463h10.085v-.463zm1.818-7.969h3.67v22.619h-3.67v.463h10.648v-.463h-3.67v-22.62h3.67v-.462h-10.648v.463zm19.708 12.4h3.043c.617 0 1.179.077 1.687.231.506.155.942.425 1.305.811.364.386.646.909.844 1.57.198.662.298 1.499.298 2.514 0 1.145-.15 2.066-.447 2.761-.297.694-.683 1.217-1.158 1.571a3.794 3.794 0 0 1-1.587.694 9.28 9.28 0 0 1-1.736.165c-.396 0-.8-.005-1.207-.016a8.502 8.502 0 0 1-1.041-.082V48.833zm-6.977-12.4h3.67v22.619h-3.67v.463h6.284a19.105 19.105 0 0 1 1.587.065c.264 0 .529.006.794.017.264.01.528.016.792.016 1.3 0 2.448-.071 3.44-.215.992-.143 1.918-.556 2.777-1.24.772-.595 1.318-1.267 1.638-2.016.319-.75.479-1.455.479-2.117 0-.331-.061-.755-.182-1.273-.121-.519-.386-1.048-.793-1.587-.408-.541-.998-1.037-1.77-1.488-.771-.452-1.797-.756-3.075-.909v-.067c.353-.045.832-.127 1.439-.248a8.446 8.446 0 0 0 1.85-.612 6.864 6.864 0 0 0 1.738-1.141c.529-.474.903-1.086 1.124-1.835.132-.441.225-.942.28-1.505.055-.562.1-1.14.133-1.736.033-.595.066-1.168.099-1.719a8.398 8.398 0 0 1 .182-1.389 5.113 5.113 0 0 1 .629-1.554c.286-.463.749-.694 1.388-.694.287 0 .584.054.893.165.309.11.584.286.827.529l.297-.364a6.531 6.531 0 0 0-.38-.281 2.756 2.756 0 0 0-.546-.281 4.06 4.06 0 0 0-.81-.215 7.184 7.184 0 0 0-1.173-.083c-.883 0-1.615.111-2.2.331-.584.22-1.053.545-1.405.976-.353.43-.612.959-.777 1.587a12.718 12.718 0 0 0-.348 2.199l-.231 3.009c-.088 1.102-.31 1.962-.661 2.579-.353.617-.767 1.069-1.24 1.356a3.578 3.578 0 0 1-1.472.513c-.507.055-.948.082-1.322.082h-3.307V36.433h3.67v-.463h-10.648v.463zm23.875 0h3.671v22.619h-3.67v.463h10.646v-.463h-3.669v-22.62h5.885c1.94 0 3.461.607 4.564 1.819 1.102 1.213 1.906 2.867 2.414 4.96h.363V35.97h-20.204v.463zm24.14 6.647h.363c.242-1.19.557-2.194.943-3.01.385-.816.81-1.488 1.273-2.017.463-.529.947-.937 1.455-1.224a6.304 6.304 0 0 1 1.537-.628 7.365 7.365 0 0 1 1.489-.23c.473-.023.919-.035 1.339-.035 1.168 0 2.127.177 2.877.53.749.352 1.344.8 1.786 1.34.44.54.749 1.124.925 1.752a6.43 6.43 0 0 1 .265 1.736c0 .771-.144 1.432-.43 1.983a4.765 4.765 0 0 1-1.092 1.406c-.44.385-.919.7-1.438.943a9.82 9.82 0 0 1-1.471.561l-3.803 1.158c-1.786.55-3.136 1.278-4.051 2.182-.915.905-1.372 2.117-1.372 3.638 0 .992.176 1.912.529 2.762a6.489 6.489 0 0 0 1.488 2.198 6.945 6.945 0 0 0 2.298 1.455c.893.353 1.868.53 2.927.53.771 0 1.416-.063 1.934-.188a8.43 8.43 0 0 0 1.339-.43c.375-.162.711-.309 1.009-.44.298-.133.601-.2.909-.2.286 0 .48.04.579.117.099.077.237.27.414.58l.462-.034V53.53h-.396a9.868 9.868 0 0 1-.678 2.298 7.108 7.108 0 0 1-1.24 1.951 5.807 5.807 0 0 1-1.836 1.356c-.716.341-1.549.512-2.496.512a8.091 8.091 0 0 1-1.753-.214 5.533 5.533 0 0 1-1.785-.745 4.45 4.45 0 0 1-1.373-1.388c-.363-.574-.545-1.3-.545-2.183 0-.706.142-1.307.43-1.802a4.158 4.158 0 0 1 1.107-1.256 6.818 6.818 0 0 1 1.521-.86c.563-.232 1.13-.436 1.704-.612l4.001-1.257c.419-.132.947-.309 1.586-.529a7.17 7.17 0 0 0 1.87-.992c.605-.44 1.124-1.025 1.553-1.752.43-.728.645-1.654.645-2.779a7.71 7.71 0 0 0-.578-2.959 7.42 7.42 0 0 0-1.67-2.48c-.728-.717-1.61-1.289-2.646-1.72-1.036-.43-2.205-.644-3.505-.644-.463 0-.871.005-1.223.016a9.243 9.243 0 0 0-.992.083c-.31.044-.618.094-.926.15-.31.054-.651.136-1.026.247-.441.131-.915.286-1.421.463-.508.175-.949.264-1.324.264-.33 0-.556-.066-.677-.198a1.817 1.817 0 0 1-.314-.496l-.496-.033v7.11z" fill="#373535"/></g></svg>